<?xml version="1.0" encoding="utf-8"?>
<!-- Generator: Adobe Illustrator 24.3.0, SVG Export Plug-In . SVG Version: 6.00 Build 0)  -->
<svg version="1.1" id="Capa_1" xmlns="http://www.w3.org/2000/svg" xmlns:xlink="http://www.w3.org/1999/xlink" x="0px" y="0px"
	 viewBox="0 0 100 100" style="enable-background:new 0 0 100 100;" xml:space="preserve">
<style type="text/css">
	.st0{fill:#FFFFFF;}
</style>
<path class="st0" d="M23.87,53.5c1.01,0,1.68,0,2.35,0c18.82,0,37.64,0,56.45,0c0.72,0,1.44,0.04,2.14-0.21
	c1.49-0.54,2.26-1.62,2.18-3.09c-0.07-1.31-1.04-2.44-2.42-2.81c-0.82-0.22-1.67-0.21-2.51-0.2c-18.66,0-37.31,0-55.97-0.01
	c-0.47,0-0.96,0.12-1.49-0.19c0.65-0.95,1.59-1.56,2.4-2.29c4.83-4.35,9.69-8.65,14.54-12.98c1.28-1.15,1.55-2.74,0.72-4
	c-0.93-1.41-2.89-1.94-4.49-1.18c-0.46,0.22-0.9,0.53-1.29,0.88c-7.52,6.7-15.03,13.4-22.53,20.11c-2.41,2.16-2.36,3.84,0.05,5.99
	c7.07,6.3,14.11,12.62,21.17,18.93c0.63,0.56,1.25,1.13,1.91,1.65c1.14,0.89,2.81,0.97,4.08,0.22c1.16-0.68,1.65-1.69,1.53-3.03
	c-0.09-0.96-0.7-1.59-1.37-2.19c-4.07-3.63-8.15-7.26-12.22-10.89C27.44,56.71,25.79,55.22,23.87,53.5z"/>
</svg>
