<?xml version="1.0" encoding="utf-8"?>
<!-- Generator: Adobe Illustrator 24.3.0, SVG Export Plug-In . SVG Version: 6.00 Build 0)  -->
<svg version="1.1" id="Capa_1" xmlns="http://www.w3.org/2000/svg" xmlns:xlink="http://www.w3.org/1999/xlink" x="0px" y="0px"
	 viewBox="0 0 100 100" style="enable-background:new 0 0 100 100;" xml:space="preserve">
<style type="text/css">
	.st0{fill:#FFFFFF;}
</style>
<path class="st0" d="M42.05,50.1c0,10.83-0.01,21.65,0.01,32.48c0,1.63-0.17,3.2-1.07,4.62c-0.46,0.72-1.1,1.24-1.87,1.57
	c-0.46,0.2-0.92,0.18-1.4-0.04c-3.64-1.67-7.28-3.33-10.93-4.99c-4.19-1.91-8.38-3.82-12.58-5.73c-0.16-0.07-0.32-0.14-0.49-0.16
	c-1.68-0.21-2.53-1.38-3.13-2.77c-0.53-1.21-0.62-2.5-0.5-3.81c0.05-0.57,0.05-1.14,0.01-1.71c-0.06-0.88-0.01-1.76-0.01-2.64
	c0.02-2.1-0.03-4.21-0.04-6.31c0-0.78,0.09-1.56,0.05-2.33c-0.11-2.03-0.01-4.07-0.02-6.1c-0.01-2-0.01-4,0-6
	c0.01-2.1,0.04-4.21-0.02-6.31c-0.05-2,0.02-4,0.04-6c0-0.67-0.03-1.35-0.03-2.02c0.01-1.71-0.04-3.42,0.09-5.11
	c0.11-1.44,0.68-2.74,1.82-3.72c0.33-0.29,0.69-0.56,1.11-0.63c1.51-0.25,2.8-1.07,4.17-1.67c2.99-1.3,5.94-2.68,8.91-4.03
	c3.15-1.44,6.3-2.9,9.46-4.34c0.74-0.34,1.47-0.69,2.22-0.99c0.82-0.34,1.54-0.01,2.16,0.5c1.32,1.08,1.88,2.55,1.98,4.23
	c0.15,2.47,0.06,4.94,0.07,7.41c0.02,7.74,0.01,15.47,0.01,23.21C42.06,47.82,42.06,48.96,42.05,50.1
	C42.06,50.1,42.06,50.1,42.05,50.1z M32.04,52.7c2.55,0,4.52-1.98,4.52-4.54c0-2.46-2.02-4.46-4.5-4.47
	c-2.48-0.01-4.5,1.99-4.51,4.44C27.55,50.71,29.5,52.7,32.04,52.7z"/>
<path class="st0" d="M68.23,42.45c2.55,0,5.11,0,7.66,0c0.6,0,0.61,0,0.61-0.48c0-1.54,0-3.09,0-4.63c0-0.11-0.07-0.28,0.1-0.33
	c0.17-0.05,0.26,0.1,0.36,0.18c2.5,2.01,5.01,4.01,7.51,6.02c1.57,1.26,3.15,2.53,4.72,3.79c0.54,0.43,1.09,0.85,1.63,1.28
	c0.22,0.17,0.26,0.3,0.01,0.5c-1.66,1.32-3.31,2.65-4.96,3.97c-2.97,2.38-5.94,4.77-8.92,7.15c-0.1,0.08-0.19,0.23-0.36,0.16
	c-0.14-0.06-0.07-0.2-0.08-0.31c-0.08-1.5,0-2.99-0.03-4.49c0-0.15-0.08-0.2-0.25-0.19c-1.27,0.11-2.55,0-3.82,0.01
	c-1.57,0.01-3.15,0.01-4.73,0c-1.66-0.01-3.32-0.05-4.97,0.02c-0.81,0.03-1.62-0.03-2.43-0.04c-0.29,0-0.39-0.12-0.39-0.33
	c0-0.38-0.01-0.76-0.01-1.14c0-3.56,0-7.11,0-10.67c0-0.46,0.04-0.49,0.61-0.49C63.07,42.44,65.65,42.44,68.23,42.45
	C68.23,42.44,68.23,42.45,68.23,42.45z"/>
<path class="st0" d="M70.98,69.08c0,2.19,0.02,4.39-0.01,6.58c-0.03,2.4-0.95,4.38-2.96,5.74c-1.14,0.77-2.48,0.9-3.83,0.81
	c-0.79-0.05-1.59-0.07-2.38,0.01c-0.12,0.01-0.24,0.02-0.36,0.02c-1.72-0.07-3.45,0.04-5.17-0.03c-1.85-0.08-3.69,0.15-5.53-0.03
	c-0.46-0.05-0.93-0.01-1.4,0.04c-0.6,0.07-0.75-0.08-0.75-0.67c0-1.68,0-3.35,0-5.03c0-0.66,0.04-0.71,0.71-0.71
	c4.9,0,9.81,0,14.71-0.01c0.28,0,0.55-0.01,0.83,0.01c0.4,0.03,0.55-0.13,0.55-0.54c-0.01-2.68,0-5.35,0-8.03
	c0-1.78-0.01-3.56,0-5.34c0-0.6,0.11-0.71,0.7-0.65c1.12,0.1,2.24-0.08,3.36-0.04c1.89,0.07,1.5-0.03,1.52,1.5
	C70.99,64.83,70.97,66.95,70.98,69.08C70.97,69.08,70.97,69.08,70.98,69.08z"/>
<path class="st0" d="M56.93,24.32c-2.56,0-5.11,0-7.67,0c-0.64,0-0.68-0.04-0.68-0.67c0-1.67,0.01-3.35,0-5.02
	c0-0.47,0.11-0.67,0.63-0.69c0.92-0.05,1.83,0.03,2.74,0c2.09-0.07,4.17,0.08,6.26-0.04c0.77-0.04,1.55,0.06,2.33,0.05
	c1.52-0.01,3.04,0.03,4.55-0.03c2.67-0.09,4.73,1.97,5.43,3.97c0.33,0.94,0.46,1.91,0.46,2.9c0,3.33,0.01,6.66,0.01,10
	c0,0.79-0.03,0.82-0.81,0.82c-1.29,0-2.59,0.01-3.88,0c-0.9,0-0.9-0.01-0.9-0.89c0-3.21-0.01-6.42-0.01-9.63
	c0-0.77,0-0.77-0.78-0.77C62.04,24.32,59.48,24.32,56.93,24.32z"/>
</svg>
